<svg width="150" height="150" viewBox="0 0 150 150" fill="none" xmlns="http://www.w3.org/2000/svg">
<path fill-rule="evenodd" clip-rule="evenodd" d="M75 0C33.6 0 0 33.6 0 75C0 116.4 33.6 150 75 150C116.4 150 150 116.4 150 75C150 33.6 116.4 0 75 0ZM122.7 111.225C111.975 98.175 85.95 93.75 75 93.75C64.05 93.75 38.025 98.175 27.3 111.225C19.65 101.175 15 88.65 15 75C15 41.925 41.925 15 75 15C108.075 15 135 41.925 135 75C135 88.65 130.35 101.175 122.7 111.225ZM48.75 56.25C48.75 41.7 60.45 30 75 30C89.55 30 101.25 41.7 101.25 56.25C101.25 70.8 89.55 82.5 75 82.5C60.45 82.5 48.75 70.8 48.75 56.25Z" fill="#21D9D2"/>
</svg>
